<mxfile host="app.diagrams.net" agent="Mozilla/5.0 (Windows NT 10.0; Win64; x64) AppleWebKit/537.36 (KHTML, like Gecko) Chrome/141.0.0.0 Safari/537.36 Edg/141.0.0.0" version="28.2.8">
  <diagram name="Page-1" id="3rO9KeIL0mYWNAqeyayW">
    <mxGraphModel dx="778" dy="460" grid="1" gridSize="10" guides="1" tooltips="1" connect="1" arrows="1" fold="1" page="1" pageScale="1" pageWidth="850" pageHeight="1100" math="0" shadow="0">
      <root>
        <mxCell id="0" />
        <mxCell id="1" parent="0" />
        <mxCell id="X_URUNGLUlSuWSXZKiOv-1" value="Posting Service" style="rounded=1;whiteSpace=wrap;html=1;" vertex="1" parent="1">
          <mxGeometry x="140" y="253" width="120" height="60" as="geometry" />
        </mxCell>
        <mxCell id="X_URUNGLUlSuWSXZKiOv-2" value="ISO20022 MiddleWare" style="rounded=1;whiteSpace=wrap;html=1;" vertex="1" parent="1">
          <mxGeometry x="140" y="150" width="120" height="60" as="geometry" />
        </mxCell>
        <mxCell id="X_URUNGLUlSuWSXZKiOv-3" value="SFTP Sever" style="rounded=0;whiteSpace=wrap;html=1;" vertex="1" parent="1">
          <mxGeometry x="321" y="150" width="120" height="60" as="geometry" />
        </mxCell>
        <mxCell id="X_URUNGLUlSuWSXZKiOv-5" value="Finacle" style="shape=cylinder3;whiteSpace=wrap;html=1;boundedLbl=1;backgroundOutline=1;size=15;" vertex="1" parent="1">
          <mxGeometry x="171" y="349" width="60" height="80" as="geometry" />
        </mxCell>
        <mxCell id="X_URUNGLUlSuWSXZKiOv-21" value="" style="edgeStyle=orthogonalEdgeStyle;rounded=0;orthogonalLoop=1;jettySize=auto;html=1;" edge="1" parent="1" source="X_URUNGLUlSuWSXZKiOv-6" target="X_URUNGLUlSuWSXZKiOv-3">
          <mxGeometry relative="1" as="geometry">
            <Array as="points">
              <mxPoint x="490" y="190" />
              <mxPoint x="490" y="180" />
            </Array>
          </mxGeometry>
        </mxCell>
        <mxCell id="X_URUNGLUlSuWSXZKiOv-6" value="Swift AutoClient" style="rounded=1;whiteSpace=wrap;html=1;" vertex="1" parent="1">
          <mxGeometry x="520" y="160" width="120" height="60" as="geometry" />
        </mxCell>
        <mxCell id="X_URUNGLUlSuWSXZKiOv-7" value="SwiftNetwork" style="ellipse;shape=cloud;whiteSpace=wrap;html=1;" vertex="1" parent="1">
          <mxGeometry x="610" y="50" width="120" height="80" as="geometry" />
        </mxCell>
        <mxCell id="X_URUNGLUlSuWSXZKiOv-13" value="" style="endArrow=classic;startArrow=classic;html=1;rounded=0;" edge="1" parent="1">
          <mxGeometry width="50" height="50" relative="1" as="geometry">
            <mxPoint x="196" y="251" as="sourcePoint" />
            <mxPoint x="196" y="211" as="targetPoint" />
          </mxGeometry>
        </mxCell>
        <mxCell id="X_URUNGLUlSuWSXZKiOv-14" value="" style="endArrow=classic;startArrow=classic;html=1;rounded=0;" edge="1" parent="1">
          <mxGeometry width="50" height="50" relative="1" as="geometry">
            <mxPoint x="200" y="350" as="sourcePoint" />
            <mxPoint x="200" y="313" as="targetPoint" />
          </mxGeometry>
        </mxCell>
        <mxCell id="X_URUNGLUlSuWSXZKiOv-22" value="" style="endArrow=classic;startArrow=classic;html=1;rounded=0;entryX=0.55;entryY=0.95;entryDx=0;entryDy=0;entryPerimeter=0;" edge="1" parent="1" target="X_URUNGLUlSuWSXZKiOv-7">
          <mxGeometry width="50" height="50" relative="1" as="geometry">
            <mxPoint x="640" y="180" as="sourcePoint" />
            <mxPoint x="690" y="130" as="targetPoint" />
          </mxGeometry>
        </mxCell>
        <mxCell id="X_URUNGLUlSuWSXZKiOv-27" value="Push/Pull" style="text;html=1;whiteSpace=wrap;strokeColor=none;fillColor=none;align=center;verticalAlign=middle;rounded=0;" vertex="1" parent="1">
          <mxGeometry x="460" y="150" width="60" height="30" as="geometry" />
        </mxCell>
        <mxCell id="X_URUNGLUlSuWSXZKiOv-30" style="edgeStyle=orthogonalEdgeStyle;rounded=0;orthogonalLoop=1;jettySize=auto;html=1;entryX=0;entryY=0.5;entryDx=0;entryDy=0;" edge="1" parent="1" source="X_URUNGLUlSuWSXZKiOv-29" target="X_URUNGLUlSuWSXZKiOv-2">
          <mxGeometry relative="1" as="geometry" />
        </mxCell>
        <mxCell id="X_URUNGLUlSuWSXZKiOv-29" value="Actor" style="shape=umlActor;verticalLabelPosition=bottom;verticalAlign=top;html=1;outlineConnect=0;" vertex="1" parent="1">
          <mxGeometry x="30" y="80" width="30" height="60" as="geometry" />
        </mxCell>
        <mxCell id="X_URUNGLUlSuWSXZKiOv-33" value="" style="endArrow=classic;startArrow=classic;html=1;rounded=0;" edge="1" parent="1">
          <mxGeometry width="50" height="50" relative="1" as="geometry">
            <mxPoint x="260" y="183" as="sourcePoint" />
            <mxPoint x="320" y="183" as="targetPoint" />
          </mxGeometry>
        </mxCell>
        <mxCell id="X_URUNGLUlSuWSXZKiOv-35" value="Push/Pull" style="text;html=1;whiteSpace=wrap;strokeColor=none;fillColor=none;align=center;verticalAlign=middle;rounded=0;" vertex="1" parent="1">
          <mxGeometry x="264" y="148" width="60" height="30" as="geometry" />
        </mxCell>
        <mxCell id="X_URUNGLUlSuWSXZKiOv-36" value="172.18.14.XX" style="text;html=1;whiteSpace=wrap;strokeColor=none;fillColor=none;align=center;verticalAlign=middle;rounded=0;" vertex="1" parent="1">
          <mxGeometry x="170" y="290" width="60" height="30" as="geometry" />
        </mxCell>
        <mxCell id="X_URUNGLUlSuWSXZKiOv-38" value="172.18.14.143" style="text;html=1;whiteSpace=wrap;strokeColor=none;fillColor=none;align=center;verticalAlign=middle;rounded=0;" vertex="1" parent="1">
          <mxGeometry x="171" y="429" width="60" height="30" as="geometry" />
        </mxCell>
      </root>
    </mxGraphModel>
  </diagram>
</mxfile>
